<svg id="visual" viewBox="0 0 4500 600" width="4500" height="600" xmlns="http://www.w3.org/2000/svg" xmlns:xlink="http://www.w3.org/1999/xlink" version="1.1"><path d="M0 301L50 293.7C100 286.3 200 271.7 300 255C400 238.3 500 219.7 600 229.3C700 239 800 277 900 298.7C1000 320.3 1100 325.7 1200 316C1300 306.3 1400 281.7 1500 268.3C1600 255 1700 253 1800 270.5C1900 288 2000 325 2100 324.5C2200 324 2300 286 2400 283.7C2500 281.3 2600 314.7 2700 307.5C2800 300.3 2900 252.7 3000 250.7C3100 248.7 3200 292.3 3300 298C3400 303.7 3500 271.3 3600 255.8C3700 240.3 3800 241.7 3900 246.5C4000 251.3 4100 259.7 4200 273.3C4300 287 4400 306 4450 315.5L4500 325L4500 601L4450 601C4400 601 4300 601 4200 601C4100 601 4000 601 3900 601C3800 601 3700 601 3600 601C3500 601 3400 601 3300 601C3200 601 3100 601 3000 601C2900 601 2800 601 2700 601C2600 601 2500 601 2400 601C2300 601 2200 601 2100 601C2000 601 1900 601 1800 601C1700 601 1600 601 1500 601C1400 601 1300 601 1200 601C1100 601 1000 601 900 601C800 601 700 601 600 601C500 601 400 601 300 601C200 601 100 601 50 601L0 601Z" fill="#4facf7"></path><path d="M0 458L50 458.5C100 459 200 460 300 436.5C400 413 500 365 600 346.8C700 328.7 800 340.3 900 353C1000 365.7 1100 379.3 1200 398.8C1300 418.3 1400 443.7 1500 454.7C1600 465.7 1700 462.3 1800 450.3C1900 438.3 2000 417.7 2100 396C2200 374.3 2300 351.7 2400 352.2C2500 352.7 2600 376.3 2700 388C2800 399.7 2900 399.3 3000 405.7C3100 412 3200 425 3300 417C3400 409 3500 380 3600 379.7C3700 379.3 3800 407.7 3900 405.7C4000 403.7 4100 371.3 4200 355.5C4300 339.7 4400 340.3 4450 340.7L4500 341L4500 601L4450 601C4400 601 4300 601 4200 601C4100 601 4000 601 3900 601C3800 601 3700 601 3600 601C3500 601 3400 601 3300 601C3200 601 3100 601 3000 601C2900 601 2800 601 2700 601C2600 601 2500 601 2400 601C2300 601 2200 601 2100 601C2000 601 1900 601 1800 601C1700 601 1600 601 1500 601C1400 601 1300 601 1200 601C1100 601 1000 601 900 601C800 601 700 601 600 601C500 601 400 601 300 601C200 601 100 601 50 601L0 601Z" fill="#0e89f3"></path><path d="M0 474L50 477.7C100 481.3 200 488.7 300 484C400 479.3 500 462.7 600 467.3C700 472 800 498 900 510.7C1000 523.3 1100 522.7 1200 510.7C1300 498.7 1400 475.3 1500 483.8C1600 492.3 1700 532.7 1800 531.7C1900 530.7 2000 488.3 2100 488.5C2200 488.7 2300 531.3 2400 538.8C2500 546.3 2600 518.7 2700 503.2C2800 487.7 2900 484.3 3000 491.7C3100 499 3200 517 3300 530.5C3400 544 3500 553 3600 553C3700 553 3800 544 3900 540.3C4000 536.7 4100 538.3 4200 536.8C4300 535.3 4400 530.7 4450 528.3L4500 526L4500 601L4450 601C4400 601 4300 601 4200 601C4100 601 4000 601 3900 601C3800 601 3700 601 3600 601C3500 601 3400 601 3300 601C3200 601 3100 601 3000 601C2900 601 2800 601 2700 601C2600 601 2500 601 2400 601C2300 601 2200 601 2100 601C2000 601 1900 601 1800 601C1700 601 1600 601 1500 601C1400 601 1300 601 1200 601C1100 601 1000 601 900 601C800 601 700 601 600 601C500 601 400 601 300 601C200 601 100 601 50 601L0 601Z" fill="#1762e6"></path></svg>